<svg xmlns="http://www.w3.org/2000/svg" width="512" height="512" viewBox="0 0 512 512"><defs><linearGradient id="g" x1="0" x2="1" y1="0" y2="1"><stop stop-color="#5b7cfa"/><stop offset="1" stop-color="#00d4ff"/></linearGradient></defs><rect width="512" height="512" rx="112" fill="url(#g)"/><rect x="72" y="150" width="368" height="230" rx="38" fill="#0b1020" opacity=".92"/><g fill="#fff"><rect x="108" y="190" width="48" height="38" rx="10"/><rect x="168" y="190" width="48" height="38" rx="10"/><rect x="228" y="190" width="48" height="38" rx="10"/><rect x="288" y="190" width="48" height="38" rx="10"/><rect x="348" y="190" width="48" height="38" rx="10"/><rect x="128" y="244" width="48" height="38" rx="10"/><rect x="188" y="244" width="48" height="38" rx="10"/><rect x="248" y="244" width="48" height="38" rx="10"/><rect x="308" y="244" width="48" height="38" rx="10"/><rect x="148" y="298" width="216" height="38" rx="10"/></g><text x="256" y="455" text-anchor="middle" font-size="54" font-family="Arial, sans-serif" font-weight="700" fill="#fff">KPC</text></svg>